<?xml version="1.0" encoding="iso-8859-1"?>
<!-- Generator: Adobe Illustrator 19.0.0, SVG Export Plug-In . SVG Version: 6.00 Build 0)  -->
<svg version="1.1" id="Capa_1" xmlns="http://www.w3.org/2000/svg" xmlns:xlink="http://www.w3.org/1999/xlink" x="0px" y="0px"
	 viewBox="0 0 410.645 410.645" style="enable-background:new 0 0 410.645 410.645;" xml:space="preserve">
<path style="fill:#4DCFE0;" d="M382.433,410.645H15.673C6.792,410.645,0,403.853,0,394.971V28.212
	c0-8.882,6.792-15.673,15.673-15.673h136.882c8.882,0,15.673,6.792,15.673,15.673s-6.792,15.673-15.673,15.673H31.347v335.412
	h335.412V258.09c0-8.882,6.792-15.673,15.673-15.673c8.882,0,15.673,6.792,15.673,15.673v136.882
	C398.106,403.853,391.314,410.645,382.433,410.645z"/>
<path style="fill:#1185E0;" d="M405.943,60.604L350.041,4.702c-6.269-6.269-16.196-6.269-21.943,0L143.151,189.649
	c-2.09,2.09-3.135,4.18-4.18,6.792l-21.943,77.845c-1.567,5.225,0,11.494,4.18,15.151c3.135,3.135,6.792,4.702,10.971,4.702
	c1.567,0,2.612,0,4.18-0.522l77.845-21.943c2.612-0.522,4.702-2.09,6.792-4.18L405.943,82.547c3.135-3.135,4.702-6.792,4.702-10.971
	C410.645,67.396,409.078,63.216,405.943,60.604z M161.959,229.878l18.808,18.808L154.645,256L161.959,229.878z M210.547,234.057
	l-33.959-33.959L339.069,37.616l33.959,33.959L210.547,234.057z"/>
<g>
</g>
<g>
</g>
<g>
</g>
<g>
</g>
<g>
</g>
<g>
</g>
<g>
</g>
<g>
</g>
<g>
</g>
<g>
</g>
<g>
</g>
<g>
</g>
<g>
</g>
<g>
</g>
<g>
</g>
</svg>
